<svg xmlns="http://www.w3.org/2000/svg" xmlns:xlink="http://www.w3.org/1999/xlink" width="750" height="551" viewBox="0 0 750 551">
  <defs>
    <style>
      .cls-1 {
        clip-path: url(#clip-Artboard_4);
      }

      .cls-2 {
        fill: #ffe4dc;
      }

      .cls-3 {
        fill: #ff6c5b;
      }

      .cls-4 {
        fill: rgba(0,0,0,0);
      }
    </style>
    <clipPath id="clip-Artboard_4">
      <rect width="750" height="551"/>
    </clipPath>
  </defs>
  <g id="Artboard_4" data-name="Artboard – 4" class="cls-1">
    <rect class="cls-4" width="750" height="551"/>
    <g id="Component_3_1" data-name="Component 3 – 1" transform="translate(25.136 55.503)">
      <path id="Union_3" data-name="Union 3" class="cls-2" d="M-1572.606-1297.687c-14.359,0-30.92-11.522-30.92-25.881l-6.282-62.847a175.765,175.765,0,0,0-21.153-6.06c-9.873-1.9-42.547-4.069-53.69-4.069-11.025,0-33.454,2.788-42.268,14.678l-5.827,58.3c0,14.359-16.561,25.881-30.92,25.881H-1950.1c-14.359,0-31.83-17.888-31.83-32.247l-4.357-54.662q-.305.057-.616.1l-10.488,1.473a14,14,0,0,1-15.812-11.915l-4.66-33.163a14,14,0,0,1,11.915-15.812h16.851a8.5,8.5,0,0,1,3.582.252l263.944,1.21.028-.143s.044.05.13.144l.549,0-.053.527c3.056,3.192,17.042,16.723,36.265,18.634,21.819,2.168,44.573.275,53.69-5.834a122.964,122.964,0,0,0,15.619-12.659l-.067-.668.758,0,.144-.143.018.142,263.729-1.209a8.5,8.5,0,0,1,3.582-.252h16.851a14,14,0,0,1,11.915,15.812l-4.66,33.163a14,14,0,0,1-15.812,11.915l-10.488-1.473c-.207-.029-.411-.062-.615-.1l-4.358,54.662c0,14.359-17.471,32.247-31.83,32.247Z" transform="translate(2018 1567.774)"/>
      <g id="Group_7" data-name="Group 7" transform="translate(0 0)">
        <path id="Path_9" data-name="Path 9" class="cls-3" d="M91.155,94.392c50.343,0,91.155-19.635,91.155-6.477S141.5,111.741,91.155,111.741,0,101.074,0,87.915,40.811,94.392,91.155,94.392Z" transform="translate(248.402 136.026) rotate(-172)"/>
        <path id="Path_10" data-name="Path 10" class="cls-3" d="M91.155,17.35c50.343,0,91.155,19.635,91.155,6.477S141.5,0,91.155,0,0,10.667,0,23.826,40.811,17.35,91.155,17.35Z" transform="translate(434.85 25.373) rotate(-8)"/>
        <path id="Path_8" data-name="Path 8" class="cls-3" d="M102.754,155.787c56.749,0,102.754-103.288,102.754-56.149s-46,85.351-102.754,85.351S0,146.776,0,99.637,46,155.787,102.754,155.787Z" transform="translate(247.11 268.005)"/>
        <ellipse id="Ellipse_7" data-name="Ellipse 7" class="cls-3" cx="69.5" cy="97.5" rx="69.5" ry="97.5" transform="translate(101.864 53.497)"/>
        <ellipse id="Ellipse_9" data-name="Ellipse 9" class="cls-3" cx="69.5" cy="97.5" rx="69.5" ry="97.5" transform="translate(457.864 53.497)"/>
      </g>
    </g>
  </g>
</svg>
